# Blender v2.77 (sub 0) OBJ File: 'rooster_1.0.1.blend'
# www.blender.org
mtllib rooster_1.0.1.mtl
o Cube
v 2.228164 -0.568588 0
v 0.449295 -3.354817 0
v -0.637595 -0.449295 0
v 0.223964 -1.827789 0
v 0.637594 -2.623074 0
v 0.995472 -1.788024 0
v 1.989578 0.200188 0
v 0.979485 0.226697 0
v -0.610797 -1.072340 0
v 1.843704 -1.317481 0
v 0.556699 -3.374700 0
v 0.907950 -0.588470 0
v 0.530190 -2.603191 0
v 0.609718 -1.807907 0
v 0.084789 -0.031770 0
v 0.729119 -1.274439 0
v 1.962758 0.471748 0
v 1.350307 0.644059 0
v 2.275638 1.083319 0
v 1.456034 1.300021 0
v 1.484532 0.213442 0
v 2.310985 1.411890 0
v 1.656532 0.557904 0
v 1.895429 1.280450 0
v 1.650236 1.570661 0
v 1.974957 1.625073 0
v 2.087595 0.836822 0
v 1.469335 1.005991 0
v 1.788641 0.951933 0
v 2.271012 1.250082 0
v 2.718179 0.958378 0
v 2.742825 0.965981 0
v 2.181616 0.960070 0
v 2.705096 0.962320 0
v 2.691931 0.952701 0
v 2.520119 1.191058 0
v 2.499446 1.057554 0
v 2.392148 0.979639 0
v 2.483274 1.053434 0
v 2.628850 1.014131 0
v 2.531197 0.973202 0
v 2.683110 1.102446 0
v 2.623533 1.008096 0
v -3.055745 0.480599 0
v -2.632329 0.857992 0
v -2.034024 1.014472 0
v -1.463333 0.857992 0
v -0.975485 0.535828 0
v -0.516273 -0.135134 0
v -2.963698 0.480599 0
v -2.586306 0.683103 0
v -2.282551 0.784355 0
v -1.711860 0.627875 0
v -1.224012 0.305711 0
v -0.786107 -0.327964 0
v -1.416756 -0.615483 0
v -1.154678 -0.628267 0
v -1.608521 -0.525993 0
v -1.736363 -0.391758 0
v -1.729971 -0.193601 0
v -1.231384 -0.430111 0
v -0.975698 -0.468464 0
v -1.423148 -0.340621 0
v -1.564983 -0.279375 0
v -1.011958 -0.503381 0
v -1.923605 -0.070419 0
v -2.087736 0.116083 0
v -2.001953 0.380304 0
v -1.209863 -0.056453 0
v -0.787104 -0.361784 0
v -1.718452 0.346969 0
v -0.873424 -0.397085 0
v -1.516900 0.208038 0
v -1.778978 0.380626 0
v -2.034664 0.482901 0
v -2.393541 0.576090 0
v -0.781892 -0.298983 0
v -1.253875 0.333218 0
v -1.712008 0.609382 0
v -1.919605 0.674665 0
v -2.278482 0.767854 0
v -0.519353 -0.988163 0
v -0.826176 -1.118563 0
v -1.206509 -1.076800 0
v -0.672765 -0.750375 0
v -0.990242 -0.832834 0
v -1.253385 -0.929568 0
v -0.718862 -0.251788 0
v -1.079379 -0.543269 0
v -1.299056 -0.811313 0
v -0.609343 -0.445044 0
v -0.895285 -0.635316 0
v -1.162903 -0.855419 0
v -1.320076 -0.672817 0
v -1.179023 -0.535599 0
v -1.090385 -0.828998 0
v -1.002600 -0.558610 0
v -0.618645 -0.865434 0
v -0.626741 -0.642987 0
v 2.313728 1.404186 0
v 2.461928 1.482526 0
v 2.491272 1.525721 0
v 2.225397 1.461677 0
v 2.355935 1.553081 0
v 2.434665 1.581339 0
v 2.194404 1.481848 0
v 2.333671 1.579419 0
v 2.108589 1.537700 0
v 2.226083 1.658808 0
v 2.396218 1.639518 0
v 2.337530 1.710851 0
v 2.058671 1.570189 0
v 2.183601 1.669994 0
v 1.981253 1.628675 0
v 2.090999 1.748835 0
v 2.269601 1.792054 0
v 2.196623 1.847704 0
v 1.931177 1.618961 0
v 2.025264 1.761360 0
v 1.811494 1.595744 0
v 1.909046 1.775223 0
v 2.094974 1.887274 0
v 2.018003 1.926112 0
v 1.725922 1.579144 0
v 1.871063 1.787090 0
v 1.647881 1.564005 0
v 1.759408 1.804131 0
v 1.960255 1.950721 0
v 1.871791 1.965979 0
v 2.474255 1.567025 0
v 2.391448 1.688323 0
v 2.250059 1.835043 0
v 2.068976 1.934344 0
v 1.918699 1.975297 0
v -0.378288 -0.058489 0
v -0.178214 -0.198477 0
v 0.118765 0.125605 0
v 0.302859 0.033558 0
v -1.700738 1.079928 0
v -1.284524 0.939428 0
v -0.791348 0.579976 0
v -0.353444 -0.048372 0
v -1.997205 0.977653 0
v -1.426515 0.821174 0
v -0.986607 0.520316 0
v -0.543376 -0.171953 0
v -0.583050 0.335051 0
v -0.783635 0.198152 0
v 0.440090 -3.483683 0
v 0.547495 -3.503565 0
v 0.576080 -3.453289 0
v 0.570036 -3.537904 0
v 0.466135 -3.715944 0
v 0.529206 -3.727619 0
v 1.657861 -3.601512 0
v 0.509966 -3.458794 0
v 0.961065 -3.546551 0
v 0.981367 -3.439881 0
v 1.612516 -3.602625 0
v 0.187916 -3.529533 0
v 0.797707 -3.061141 0
v 0.546770 -3.644278 0
v 0.640195 -2.987520 0
v 0.795212 -2.988512 0
v 0.699435 -3.052239 0
v 0.546809 -3.086868 0
v 0.640856 -3.080034 0
v 0.956563 -3.066985 0
v 1.060603 -2.988945 0
v 0.183424 -3.085638 0
v 0.953198 -2.969063 0
v 0.956524 -3.624396 0
v -1.224194 -0.582262 0
v -1.093794 -0.359815 0
v -1.047771 -0.605273 0
v -0.917371 -0.382826 0
v -0.671913 -0.689650 0
v -0.541513 -0.467203 0
v 0.714279 -3.400667 0
v 1.108127 -3.520100 0
v 0.428959 -3.553912 0
v -0.011794 -3.523226 0
v 1.717672 -3.623472 0
v 1.150879 -3.535741 0
v 1.150750 -3.480833 0
v 0.939943 -2.583309 0
v 2.174772 0.924909 0
v 2.277578 0.938503 0
v 2.183268 0.841644 0
v 2.264833 0.853539 0
v 2.228299 0.833148 0
v 2.271631 0.894322 0
v 2.178171 0.873931 0
v 1.159955 -3.351967 0
v 2.380384 0.952097 0
v 2.295420 0.848441 0
v 2.376985 0.860336 0
v 2.340451 0.839945 0
v 2.383782 0.901119 0
v 2.290323 0.880728 0
v 2.174772 0.965691 0
v 2.279689 0.971369 0
v 1.668038 -3.535741 0
v 2.381439 0.978630 0
v 0.642797 -3.351967 0
v 0.505364 -3.523226 0
v 1.625285 -3.520100 0
v 0.422785 -2.583309 0
v 0.700583 -3.085638 0
v 1.158014 -3.080034 0
v 0.633592 -3.480833 0
v 1.063967 -3.086868 0
v 1.157353 -2.987520 0
v 1.063928 -3.644278 0
v 1.200514 -3.623472 0
v 0.705074 -3.529533 0
v 1.498526 -3.439881 0
v -0.088200 -3.553912 0
v 1.478223 -3.546551 0
v 1.046364 -3.727619 0
v 0.983293 -3.715944 0
v 0.197121 -3.400667 0
v 1.064653 -3.503565 0
v 0.439366 -3.624396 0
v 0.957248 -3.483683 0
v 1.081827 -1.566277 0
v 0.436040 -2.969063 0
v 0.543444 -2.988945 0
v 1.047348 -2.603191 0
v 1.073858 -3.374700 0
v 0.439405 -3.066985 0
v 0.182277 -3.052239 0
v 1.562245 -1.415913 0
v 0.278053 -2.988512 0
v 0.280549 -3.061141 0
v 1.095358 -3.602625 0
v 1.154752 -2.623074 0
v -0.007192 -3.458794 0
v 0.601409 -1.716641 0
v 1.140702 -3.601512 0
v 0.966453 -3.354817 0
v 0.052878 -3.537904 0
v 0.058922 -3.453289 0
vt 0.5842 0.3633
vt 0.6541 0.3669
vt 0.8078 0.4522
vt 0.6058 0.4600
vt 0.5698 0.2193
vt 0.5893 0.2156
vt 0.3582 0.6095
vt 0.6382 0.5843
vt 0.4891 0.6851
vt 0.5722 0.1494
vt 0.5503 0.2229
vt 0.5527 0.1530
vt 0.8774 0.5879
vt 0.7427 0.7296
vt 0.6512 0.7320
vt 0.3631 0.4966
vt 0.5897 0.1496
vt 0.5143 0.3597
vt 0.8342 0.7272
vt 0.8294 0.7764
vt 0.7739 0.7920
vt 0.8172 0.9229
vt 0.8690 0.8648
vt 0.8860 0.8872
vt 0.7400 0.8732
vt 0.7978 0.8634
vt 0.7375 0.9264
vt 0.7184 0.8076
vt 0.8852 0.9174
vt 0.8316 0.9853
vt 0.7727 0.9755
vt 0.8520 0.8425
vt 0.8924 0.9467
vt 0.3560 0.9054
vt 0.3355 0.8520
vt 0.4491 0.7886
vt 0.4756 0.8379
vt 0.1598 0.8990
vt 0.1393 0.8456
vt 0.2375 0.8644
vt 0.2580 0.9179
vt 0.0447 0.7419
vt 0.0587 0.7487
vt 0.1008 0.8076
vt 0.0808 0.8307
vt 0.0622 0.5162
vt 0.1051 0.4938
vt 0.1353 0.5551
vt 0.0472 0.5656
vt 0.1600 0.4878
vt 0.1901 0.5492
vt 0.2257 0.5067
vt 0.2565 0.5612
vt 0.0430 0.5929
vt 0.0978 0.5769
vt 0.0863 0.6832
vt 0.0271 0.6548
vt 0.1933 0.5804
vt 0.2348 0.6675
vt 0.3283 0.6051
vt 0.3546 0.6603
vt 0.1666 0.7647
vt 0.1654 0.8082
vt 0.0968 0.7859
vt 0.0980 0.7424
vt 0.2802 0.7738
vt 0.3102 0.8219
vt 0.2062 0.8192
vt 0.2192 0.7747
vt 0.4490 0.7420
vt 0.4538 0.7676
vt 0.1453 0.2974
vt 0.1261 0.3835
vt 0.0511 0.3798
vt 0.0514 0.3384
vt 0.2341 0.3063
vt 0.2138 0.3794
vt 0.1366 0.7393
vt 0.0750 0.7163
vt 0.0932 0.6961
vt 0.1580 0.7067
vt 0.2235 0.7528
vt 0.2231 0.7106
vt 0.0573 0.4172
vt 0.1180 0.3957
vt 0.1217 0.4615
vt 0.0808 0.4562
vt 0.2257 0.4154
vt 0.2108 0.4648
vt 0.2717 0.0710
vt 0.2768 0.0857
vt 0.2688 0.0962
vt 0.2563 0.0973
vt 0.2359 0.0831
vt 0.2352 0.0372
vt 0.2054 0.0469
vt 0.2274 0.0890
vt 0.1950 0.0503
vt 0.1905 0.1035
vt 0.1660 0.0597
vt 0.2408 0.1111
vt 0.2357 0.1247
vt 0.2184 0.1270
vt 0.1774 0.1035
vt 0.1492 0.0652
vt 0.1448 0.1190
vt 0.1225 0.0761
vt 0.1927 0.1451
vt 0.1838 0.1560
vt 0.1675 0.1555
vt 0.1249 0.1175
vt 0.1089 0.0694
vt 0.0905 0.1126
vt 0.0763 0.0536
vt 0.1353 0.1590
vt 0.1242 0.1706
vt 0.1102 0.1643
vt 0.0787 0.1131
vt 0.0530 0.0422
vt 0.0453 0.1094
vt 0.0317 0.0319
vt 0.0917 0.1669
vt 0.0779 0.1708
vt 0.0651 0.1645
vt 0.3173 0.7100
vt 0.2978 0.7521
vt 0.4183 0.7023
vt 0.3969 0.7349
vt 0.4453 0.9672
vt 0.4253 0.9030
vt 0.5411 0.8640
vt 0.5611 0.9235
vt 0.0746 0.9366
vt 0.0279 0.8634
vt 0.1787 0.9276
vt 0.1891 0.9777
vt 0.3259 0.9380
vt 0.3580 0.9846
vt 0.5902 0.0836
vt 0.5746 0.0795
vt 0.5729 0.0561
vt 0.5885 0.0602
vt 0.5551 0.0831
vt 0.5535 0.0597
vt 0.6823 0.0503
vt 0.6804 0.0384
vt 0.6912 0.0344
vt 0.5728 0.0306
vt 0.5533 0.0342
vt 0.5582 0.0176
vt 0.5696 0.0155
vt 0.4716 0.0526
vt 0.4724 0.0642
vt 0.4578 0.0470
vt 0.6479 0.0483
vt 0.6515 0.0677
vt 0.5095 0.0748
vt 0.5078 0.0514
vt 0.5898 0.1329
vt 0.5728 0.1316
vt 0.5533 0.1352
vt 0.5246 0.1363
vt 0.5241 0.1494
vt 0.5068 0.1379
vt 0.5070 0.1318
vt 0.6745 0.0531
vt 0.6722 0.0382
vt 0.6804 0.0384
vt 0.6823 0.0503
vt 0.0591 0.2110
vt 0.1020 0.2054
vt 0.1336 0.2594
vt 0.0908 0.2650
vt 0.1932 0.1849
vt 0.2249 0.2389
vt 0.6722 0.0382
vt 0.6745 0.0531
vt 0.4833 0.0499
vt 0.4844 0.0652
vt 0.3194 0.0300
vt 0.3402 0.0416
vt 0.3440 0.0648
vt 0.2909 0.0532
vt 0.2938 0.0348
vt 0.2890 0.0821
vt 0.3474 0.0899
vt 0.3831 0.0338
vt 0.4039 0.0454
vt 0.4078 0.0686
vt 0.3546 0.0570
vt 0.3575 0.0387
vt 0.4058 0.0976
vt 0.4058 0.1208
vt 0.3474 0.1130
vt 0.2890 0.1053
vt 0.4833 0.0499
vt 0.4844 0.0652
vt 0.4724 0.0642
vt 0.4716 0.0526
vt 0.6515 0.0677
vt 0.6479 0.0483
vt 0.5246 0.1363
vt 0.5241 0.1494
vt 0.5068 0.1379
vt 0.5070 0.1318
vt 0.5902 0.0836
vt 0.5898 0.1329
vt 0.5728 0.1316
vt 0.5746 0.0795
vt 0.5533 0.1352
vt 0.5551 0.0831
vt 0.5722 0.1494
vt 0.5527 0.1530
vt 0.5897 0.1496
vt 0.5729 0.0561
vt 0.5535 0.0597
vt 0.5533 0.0342
vt 0.5728 0.0306
vt 0.5095 0.0748
vt 0.5078 0.0514
vt 0.5885 0.0602
vt 0.4578 0.0470
vt 0.5582 0.0176
vt 0.5696 0.0155
vt 0.6912 0.0344
vt 0.5503 0.2229
vt 0.5698 0.2193
vt 0.5842 0.3633
vt 0.5143 0.3597
vt 0.5893 0.2156
vt 0.6541 0.3669
vt 0.9122 0.2056
vt 0.8945 0.1769
vt 0.9236 0.1588
vt 0.9316 0.1612
vt 0.8928 0.1749
vt 0.8628 0.1636
vt 0.9151 0.1569
vt 0.9193 0.1600
vt 0.7796 0.1994
vt 0.7490 0.1593
vt 0.8175 0.1657
vt 0.8472 0.1897
vt 0.7781 0.2536
vt 0.8524 0.1910
vt 0.8592 0.2344
vn -0.0000 0.0000 1.0000
usemtl Material
s off
f 14/1/1 6/2/1 10/3/1 16/4/1
f 13/5/1 5/6/1 6/2/1 14/1/1
f 3/7/1 12/8/1 15/9/1
f 228/10/1 13/5/1 208/11/1 227/12/1
f 16/4/1 10/3/1 1/13/1 12/8/1
f 12/8/1 21/14/1 8/15/1 15/9/1
f 9/16/1 16/4/1 12/8/1 3/7/1
f 163/17/1 5/6/1 13/5/1 228/10/1
f 208/11/1 13/5/1 14/1/1 4/18/1
f 4/18/1 14/1/1 16/4/1 9/16/1
f 21/14/1 7/19/1 17/20/1 23/21/1
f 24/22/1 33/23/1 19/24/1
f 28/25/1 29/26/1 24/22/1 20/27/1
f 8/15/1 21/14/1 23/21/1 18/28/1
f 12/8/1 1/13/1 7/19/1 21/14/1
f 24/22/1 19/24/1 30/29/1
f 20/27/1 24/22/1 26/30/1 25/31/1
f 18/28/1 23/21/1 29/26/1 28/25/1
f 23/21/1 17/20/1 27/32/1 29/26/1
f 24/22/1 30/29/1 22/33/1 26/30/1
f 29/26/1 27/32/1 33/23/1 24/22/1
f 48/34/1 54/35/1 55/36/1 49/37/1
f 46/38/1 52/39/1 53/40/1 47/41/1
f 44/42/1 50/43/1 51/44/1 45/45/1
f 47/41/1 53/40/1 54/35/1 48/34/1
f 45/45/1 51/44/1 52/39/1 46/38/1
f 59/46/1 58/47/1 63/48/1 60/49/1
f 58/47/1 56/50/1 61/51/1 63/48/1
f 56/50/1 57/52/1 62/53/1 61/51/1
f 67/54/1 66/55/1 71/56/1 68/57/1
f 66/55/1 64/58/1 69/59/1 71/56/1
f 64/58/1 65/60/1 70/61/1 69/59/1
f 75/62/1 80/63/1 81/64/1 76/65/1
f 73/66/1 78/67/1 79/68/1 74/69/1
f 74/69/1 79/68/1 80/63/1 75/62/1
f 72/70/1 77/71/1 78/67/1 73/66/1
f 83/72/1 86/73/1 87/74/1 84/75/1
f 82/76/1 85/77/1 86/73/1 83/72/1
f 89/78/1 90/79/1 93/80/1 92/81/1
f 88/82/1 89/78/1 92/81/1 91/83/1
f 94/84/1 96/85/1 97/86/1 95/87/1
f 96/85/1 98/88/1 99/89/1 97/86/1
f 101/90/1 102/91/1 130/92/1 105/93/1 104/94/1
f 100/95/1 101/90/1 104/94/1 103/96/1
f 103/96/1 104/94/1 107/97/1 106/98/1
f 106/98/1 107/97/1 109/99/1 108/100/1
f 109/99/1 107/97/1 110/101/1 131/102/1 111/103/1
f 108/100/1 109/99/1 113/104/1 112/105/1
f 112/105/1 113/104/1 115/106/1 114/107/1
f 115/106/1 113/104/1 116/108/1 132/109/1 117/110/1
f 114/107/1 115/106/1 119/111/1 118/112/1
f 118/112/1 119/111/1 121/113/1 120/114/1
f 121/113/1 119/111/1 122/115/1 133/116/1 123/117/1
f 120/114/1 121/113/1 125/118/1 124/119/1
f 124/119/1 125/118/1 127/120/1 126/121/1
f 127/120/1 125/118/1 128/122/1 134/123/1 129/124/1
f 88/82/1 91/83/1 136/125/1 135/126/1
f 135/126/1 136/125/1 138/127/1 137/128/1
f 147/129/1 148/130/1 146/131/1 142/132/1
f 139/133/1 143/134/1 144/135/1 140/136/1
f 140/136/1 144/135/1 145/137/1 141/138/1
f 141/138/1 145/137/1 148/130/1 147/129/1
f 205/139/1 11/140/1 150/141/1 211/142/1
f 11/140/1 2/143/1 149/144/1 150/141/1
f 184/145/1 240/146/1 215/147/1
f 162/148/1 224/149/1 153/150/1 154/151/1
f 182/152/1 238/153/1 218/154/1
f 205/139/1 211/142/1 157/155/1 158/156/1
f 149/144/1 2/143/1 222/157/1 160/158/1
f 150/141/1 149/144/1 224/149/1 162/148/1
f 167/159/1 163/17/1 228/10/1 166/160/1
f 166/160/1 228/10/1 227/12/1 231/161/1
f 11/140/1 166/160/1 231/161/1 2/143/1
f 205/139/1 167/159/1 166/160/1 11/140/1
f 235/162/1 234/163/1 232/164/1 170/165/1
f 207/166/1 159/167/1 155/168/1 203/169/1
f 173/170/1 175/171/1 176/172/1 174/173/1
f 175/171/1 177/174/1 178/175/1 176/172/1
f 158/156/1 157/155/1 236/176/1 180/177/1
f 242/178/1 243/179/1 238/153/1 182/152/1
f 180/177/1 236/176/1 240/146/1 184/145/1
f 160/158/1 222/157/1 243/179/1 242/178/1
f 191/180/1 190/181/1 192/182/1
f 193/183/1 191/180/1 192/182/1
f 193/183/1 189/184/1 191/180/1
f 187/185/1 193/183/1 192/182/1 188/186/1
f 198/187/1 197/188/1 199/189/1
f 200/190/1 198/187/1 199/189/1
f 200/190/1 196/191/1 198/187/1
f 188/186/1 200/190/1 199/189/1 195/192/1
f 195/192/1 204/193/1 202/194/1 188/186/1
f 188/186/1 202/194/1 201/195/1 187/185/1
f 152/196/1 151/197/1 156/198/1 206/199/1
f 217/200/1 219/201/1 159/167/1 207/166/1
f 161/202/1 164/203/1 165/204/1 209/205/1
f 194/206/1 210/207/1 212/208/1 230/209/1
f 230/209/1 212/208/1 168/210/1 241/211/1
f 212/208/1 169/212/1 171/213/1 168/210/1
f 210/207/1 213/214/1 169/212/1 212/208/1
f 223/215/1 225/216/1 172/217/1 214/218/1
f 225/216/1 241/211/1 179/219/1 216/220/1
f 194/206/1 185/221/1 219/201/1 217/200/1
f 206/199/1 156/198/1 181/222/1
f 214/218/1 172/217/1 221/223/1 220/224/1
f 203/169/1 155/168/1 183/225/1
f 230/209/1 241/211/1 225/216/1 223/215/1
f 194/206/1 230/209/1 223/215/1 185/221/1
f 231/161/1 227/12/1 234/163/1 235/162/1
f 186/226/1 229/227/1 226/228/1 239/229/1
f 213/214/1 237/230/1 229/227/1 169/212/1
f 169/212/1 229/227/1 186/226/1 171/213/1
f 229/227/1 237/230/1 233/231/1 226/228/1
f 216/220/1 179/219/1 151/197/1 152/196/1
f 168/210/1 171/213/1 164/203/1 161/202/1
usemtl Material_Untitled
f 42/232/1 40/233/1 31/234/1 32/235/1
f 43/236/1 41/237/1 35/238/1 34/239/1
f 19/240/1 33/241/1 38/242/1 39/243/1
f 30/244/1 19/240/1 37/245/1 36/246/1
f 39/243/1 38/242/1 41/237/1 43/236/1
f 36/246/1 37/245/1 40/233/1 42/232/1
